<?xml version="1.0" encoding="UTF-8" standalone="no"?>
<!DOCTYPE svg PUBLIC "-//W3C//DTD SVG 1.1//EN" "http://www.w3.org/Graphics/SVG/1.1/DTD/svg11.dtd">
<svg version="1.1" xmlns="http://www.w3.org/2000/svg" xmlns:xlink="http://www.w3.org/1999/xlink" preserveAspectRatio="xMidYMid meet" viewBox="0 0 640 640" width="640" height="640"><defs><path d="M580.93 320.36C580.93 494.21 464.91 635.36 322 635.36C179.09 635.36 63.07 494.21 63.07 320.36C63.07 146.5 179.09 5.36 322 5.36C464.91 5.36 580.93 146.5 580.93 320.36Z" id="a1qAn16hd6"></path><path d="M569.14 320.43C569.14 489.55 458.24 626.86 321.64 626.86C185.04 626.86 74.14 489.55 74.14 320.43C74.14 151.31 185.04 14 321.64 14C458.24 14 569.14 151.31 569.14 320.43Z" id="e6LX9eMaIa"></path><path d="M517.71 135.36C392.95 244.4 262.71 243.93 127 133.93" id="aBIbl2GSY"></path><path d="M517 506.79C392.24 397.74 262 398.22 126.29 508.22" id="c2J6GuGZtO"></path><path d="M248.14 248.31L403.14 248.31L403.14 403.31L248.14 403.31L248.14 248.31Z" id="diElszTy0"></path><path d="M256.73 254.47L395.3 254.47L395.3 397L256.73 397L256.73 254.47Z" id="efPMWtBDk"></path></defs><g><g><g><use xlink:href="#a1qAn16hd6" opacity="1" fill="#ffffff" fill-opacity="1"></use><g><use xlink:href="#a1qAn16hd6" opacity="1" fill-opacity="0" stroke="#e1dd10" stroke-width="2" stroke-opacity="1"></use></g></g><g><use xlink:href="#e6LX9eMaIa" opacity="1" fill="#ffffff" fill-opacity="1"></use><g><use xlink:href="#e6LX9eMaIa" opacity="1" fill-opacity="0" stroke="#010200" stroke-width="2" stroke-opacity="1"></use></g></g><g><g><use xlink:href="#aBIbl2GSY" opacity="1" fill-opacity="0" stroke="#000000" stroke-width="2" stroke-opacity="1"></use></g></g><g><g><use xlink:href="#c2J6GuGZtO" opacity="1" fill-opacity="0" stroke="#000000" stroke-width="2" stroke-opacity="1"></use></g></g><g><use xlink:href="#diElszTy0" opacity="1" fill="#f8f8f7" fill-opacity="1"></use><g><use xlink:href="#diElszTy0" opacity="1" fill-opacity="0" stroke="#d6e015" stroke-width="2" stroke-opacity="1"></use></g></g><g><use xlink:href="#efPMWtBDk" opacity="1" fill="#fafbf9" fill-opacity="1"></use><g><use xlink:href="#efPMWtBDk" opacity="1" fill-opacity="0" stroke="#000000" stroke-width="2" stroke-opacity="1"></use></g></g></g></g></svg>